<mxfile modified="2023-03-15T22:11:52.424Z" host="Electron" agent="5.0 (Windows NT 10.0; Win64; x64) AppleWebKit/537.36 (KHTML, like Gecko) draw.io/20.3.0 Chrome/104.0.5112.114 Electron/20.1.3 Safari/537.36" etag="KsBcaG_qyKEd2KwZivaB" compressed="false" version="20.3.0" type="device">
  <diagram id="6OFNXAW6JjE1FlRbkoN5" name="Command Queue">
    <mxGraphModel dx="782" dy="517" grid="1" gridSize="10" guides="1" tooltips="1" connect="1" arrows="1" fold="1" page="1" pageScale="1" pageWidth="827" pageHeight="1169" math="0" shadow="0">
      <root>
        <mxCell id="LG1R4LiIlNsXxnt8L3_L-0" />
        <mxCell id="LG1R4LiIlNsXxnt8L3_L-1" parent="LG1R4LiIlNsXxnt8L3_L-0" />
        <mxCell id="Ue-xxqDdYE5qmhYY7tYk-0" value="" style="fontStyle=1;align=center;verticalAlign=top;childLayout=stackLayout;horizontal=1;horizontalStack=0;resizeParent=1;resizeParentMax=0;resizeLast=0;marginBottom=0;strokeColor=#82b366;strokeWidth=2;fillColor=none;" parent="LG1R4LiIlNsXxnt8L3_L-1" vertex="1">
          <mxGeometry x="360" y="400" width="120" height="93" as="geometry" />
        </mxCell>
        <mxCell id="Ue-xxqDdYE5qmhYY7tYk-1" value="Add a serialized &lt;br&gt;Command to &lt;br&gt;Command Queue" style="html=1;align=left;spacingLeft=4;verticalAlign=middle;strokeColor=none;fillColor=none;fontStyle=1" parent="Ue-xxqDdYE5qmhYY7tYk-0" vertex="1">
          <mxGeometry width="120" height="60" as="geometry" />
        </mxCell>
        <mxCell id="Ue-xxqDdYE5qmhYY7tYk-2" value="" style="shape=ellipse;" parent="Ue-xxqDdYE5qmhYY7tYk-1" vertex="1">
          <mxGeometry x="1" width="10" height="16" relative="1" as="geometry">
            <mxPoint x="-25" y="7" as="offset" />
          </mxGeometry>
        </mxCell>
        <mxCell id="Ue-xxqDdYE5qmhYY7tYk-3" value="" style="line;strokeWidth=1;fillColor=none;align=left;verticalAlign=middle;spacingTop=-1;spacingLeft=3;spacingRight=3;rotatable=0;labelPosition=right;points=[];portConstraint=eastwest;" parent="Ue-xxqDdYE5qmhYY7tYk-0" vertex="1">
          <mxGeometry y="60" width="120" height="8" as="geometry" />
        </mxCell>
        <mxCell id="Ue-xxqDdYE5qmhYY7tYk-4" value="." style="html=1;align=center;spacingLeft=4;verticalAlign=top;strokeColor=none;fillColor=none;" parent="Ue-xxqDdYE5qmhYY7tYk-0" vertex="1">
          <mxGeometry y="68" width="120" height="25" as="geometry" />
        </mxCell>
        <mxCell id="Ue-xxqDdYE5qmhYY7tYk-5" style="rounded=0;orthogonalLoop=1;jettySize=auto;html=1;entryX=0;entryY=0.75;entryDx=0;entryDy=0;endArrow=open;endFill=0;exitX=1;exitY=1;exitDx=0;exitDy=0;" parent="LG1R4LiIlNsXxnt8L3_L-1" source="Ue-xxqDdYE5qmhYY7tYk-6" target="Ue-xxqDdYE5qmhYY7tYk-1" edge="1">
          <mxGeometry relative="1" as="geometry" />
        </mxCell>
        <mxCell id="BTB03IHmnFTw1apKpfme-10" style="edgeStyle=none;rounded=0;orthogonalLoop=1;jettySize=auto;html=1;entryX=0.5;entryY=1;entryDx=0;entryDy=0;endArrow=block;endFill=0;" parent="LG1R4LiIlNsXxnt8L3_L-1" source="Ue-xxqDdYE5qmhYY7tYk-6" target="BTB03IHmnFTw1apKpfme-0" edge="1">
          <mxGeometry relative="1" as="geometry" />
        </mxCell>
        <mxCell id="Ue-xxqDdYE5qmhYY7tYk-6" value="&lt;p style=&quot;line-height: 100%&quot;&gt;&amp;lt;&amp;lt;actor&amp;gt;&amp;gt;&lt;br&gt;&lt;br&gt;&lt;b&gt;Authenticated&lt;br&gt;User&lt;/b&gt;&lt;/p&gt;" style="text;html=1;align=center;verticalAlign=middle;dashed=0;strokeColor=#000000;strokeWidth=2;" parent="LG1R4LiIlNsXxnt8L3_L-1" vertex="1">
          <mxGeometry x="120" y="278" width="80" height="77" as="geometry" />
        </mxCell>
        <mxCell id="Ue-xxqDdYE5qmhYY7tYk-7" style="edgeStyle=none;rounded=0;orthogonalLoop=1;jettySize=auto;html=1;entryX=0;entryY=0.75;entryDx=0;entryDy=0;endArrow=open;endFill=0;" parent="LG1R4LiIlNsXxnt8L3_L-1" source="Ue-xxqDdYE5qmhYY7tYk-9" target="Ue-xxqDdYE5qmhYY7tYk-11" edge="1">
          <mxGeometry relative="1" as="geometry" />
        </mxCell>
        <mxCell id="BTB03IHmnFTw1apKpfme-8" style="edgeStyle=none;rounded=0;orthogonalLoop=1;jettySize=auto;html=1;entryX=0;entryY=0.25;entryDx=0;entryDy=0;endArrow=open;endFill=0;exitX=1;exitY=0;exitDx=0;exitDy=0;" parent="LG1R4LiIlNsXxnt8L3_L-1" source="Ue-xxqDdYE5qmhYY7tYk-9" target="BTB03IHmnFTw1apKpfme-5" edge="1">
          <mxGeometry relative="1" as="geometry" />
        </mxCell>
        <mxCell id="BTB03IHmnFTw1apKpfme-9" style="edgeStyle=none;rounded=0;orthogonalLoop=1;jettySize=auto;html=1;entryX=1;entryY=0.5;entryDx=0;entryDy=0;endArrow=block;endFill=0;" parent="LG1R4LiIlNsXxnt8L3_L-1" source="Ue-xxqDdYE5qmhYY7tYk-9" target="Ue-xxqDdYE5qmhYY7tYk-6" edge="1">
          <mxGeometry relative="1" as="geometry" />
        </mxCell>
        <mxCell id="Ue-xxqDdYE5qmhYY7tYk-9" value="&lt;p style=&quot;line-height: 100%&quot;&gt;&amp;lt;&amp;lt;actor&amp;gt;&amp;gt;&lt;br&gt;&lt;br&gt;&lt;b&gt;System &lt;br&gt;Daemon&lt;/b&gt;&lt;/p&gt;" style="text;html=1;align=center;verticalAlign=middle;dashed=0;strokeColor=#000000;strokeWidth=2;" parent="LG1R4LiIlNsXxnt8L3_L-1" vertex="1">
          <mxGeometry x="240" y="278" width="80" height="77" as="geometry" />
        </mxCell>
        <mxCell id="Ue-xxqDdYE5qmhYY7tYk-10" value="" style="fontStyle=1;align=center;verticalAlign=top;childLayout=stackLayout;horizontal=1;horizontalStack=0;resizeParent=1;resizeParentMax=0;resizeLast=0;marginBottom=0;strokeColor=#82b366;strokeWidth=2;fillColor=none;" parent="LG1R4LiIlNsXxnt8L3_L-1" vertex="1">
          <mxGeometry x="360" y="278" width="120" height="83" as="geometry" />
        </mxCell>
        <mxCell id="Ue-xxqDdYE5qmhYY7tYk-11" value="Dequeue and&amp;nbsp;&lt;br&gt;Process Command &lt;br&gt;QUeue" style="html=1;align=left;spacingLeft=4;verticalAlign=middle;strokeColor=none;fillColor=none;fontStyle=1" parent="Ue-xxqDdYE5qmhYY7tYk-10" vertex="1">
          <mxGeometry width="120" height="50" as="geometry" />
        </mxCell>
        <mxCell id="Ue-xxqDdYE5qmhYY7tYk-12" value="" style="shape=ellipse;" parent="Ue-xxqDdYE5qmhYY7tYk-11" vertex="1">
          <mxGeometry x="1" width="10" height="16" relative="1" as="geometry">
            <mxPoint x="-25" y="7" as="offset" />
          </mxGeometry>
        </mxCell>
        <mxCell id="Ue-xxqDdYE5qmhYY7tYk-13" value="" style="line;strokeWidth=1;fillColor=none;align=left;verticalAlign=middle;spacingTop=-1;spacingLeft=3;spacingRight=3;rotatable=0;labelPosition=right;points=[];portConstraint=eastwest;" parent="Ue-xxqDdYE5qmhYY7tYk-10" vertex="1">
          <mxGeometry y="50" width="120" height="8" as="geometry" />
        </mxCell>
        <mxCell id="Ue-xxqDdYE5qmhYY7tYk-14" value="." style="html=1;align=center;spacingLeft=4;verticalAlign=top;strokeColor=none;fillColor=none;" parent="Ue-xxqDdYE5qmhYY7tYk-10" vertex="1">
          <mxGeometry y="58" width="120" height="25" as="geometry" />
        </mxCell>
        <mxCell id="BTB03IHmnFTw1apKpfme-11" style="edgeStyle=none;rounded=0;orthogonalLoop=1;jettySize=auto;html=1;entryX=0;entryY=0.75;entryDx=0;entryDy=0;endArrow=open;endFill=0;" parent="LG1R4LiIlNsXxnt8L3_L-1" source="BTB03IHmnFTw1apKpfme-0" target="BTB03IHmnFTw1apKpfme-2" edge="1">
          <mxGeometry relative="1" as="geometry" />
        </mxCell>
        <mxCell id="BTB03IHmnFTw1apKpfme-0" value="&lt;p style=&quot;line-height: 100%&quot;&gt;&amp;lt;&amp;lt;actor&amp;gt;&amp;gt;&lt;br&gt;&lt;br&gt;&lt;b&gt;Unauthenticated&lt;br&gt;User&lt;/b&gt;&lt;/p&gt;" style="text;html=1;align=center;verticalAlign=middle;dashed=0;strokeColor=#000000;strokeWidth=2;" parent="LG1R4LiIlNsXxnt8L3_L-1" vertex="1">
          <mxGeometry x="120" y="160" width="80" height="77" as="geometry" />
        </mxCell>
        <mxCell id="BTB03IHmnFTw1apKpfme-1" value="" style="fontStyle=1;align=center;verticalAlign=top;childLayout=stackLayout;horizontal=1;horizontalStack=0;resizeParent=1;resizeParentMax=0;resizeLast=0;marginBottom=0;strokeColor=#82b366;strokeWidth=2;fillColor=none;" parent="LG1R4LiIlNsXxnt8L3_L-1" vertex="1">
          <mxGeometry x="360" y="160.5" width="120" height="83" as="geometry" />
        </mxCell>
        <mxCell id="BTB03IHmnFTw1apKpfme-2" value="Add a serialized &lt;br&gt;Process Command to &lt;br&gt;Command Log" style="html=1;align=left;spacingLeft=4;verticalAlign=middle;strokeColor=none;fillColor=none;fontStyle=1" parent="BTB03IHmnFTw1apKpfme-1" vertex="1">
          <mxGeometry width="120" height="50" as="geometry" />
        </mxCell>
        <mxCell id="BTB03IHmnFTw1apKpfme-3" value="" style="shape=ellipse;" parent="BTB03IHmnFTw1apKpfme-2" vertex="1">
          <mxGeometry x="1" width="10" height="16" relative="1" as="geometry">
            <mxPoint x="-25" y="7" as="offset" />
          </mxGeometry>
        </mxCell>
        <mxCell id="BTB03IHmnFTw1apKpfme-4" value="" style="line;strokeWidth=1;fillColor=none;align=left;verticalAlign=middle;spacingTop=-1;spacingLeft=3;spacingRight=3;rotatable=0;labelPosition=right;points=[];portConstraint=eastwest;" parent="BTB03IHmnFTw1apKpfme-1" vertex="1">
          <mxGeometry y="50" width="120" height="8" as="geometry" />
        </mxCell>
        <mxCell id="BTB03IHmnFTw1apKpfme-5" value="." style="html=1;align=center;spacingLeft=4;verticalAlign=top;strokeColor=none;fillColor=none;" parent="BTB03IHmnFTw1apKpfme-1" vertex="1">
          <mxGeometry y="58" width="120" height="25" as="geometry" />
        </mxCell>
        <mxCell id="BTB03IHmnFTw1apKpfme-18" style="edgeStyle=none;rounded=0;orthogonalLoop=1;jettySize=auto;html=1;entryX=0.5;entryY=1;entryDx=0;entryDy=0;endArrow=block;endFill=0;exitX=0;exitY=0.5;exitDx=0;exitDy=0;" parent="LG1R4LiIlNsXxnt8L3_L-1" source="BTB03IHmnFTw1apKpfme-12" target="Ue-xxqDdYE5qmhYY7tYk-6" edge="1">
          <mxGeometry relative="1" as="geometry">
            <Array as="points">
              <mxPoint x="160" y="577" />
            </Array>
          </mxGeometry>
        </mxCell>
        <mxCell id="BTB03IHmnFTw1apKpfme-19" style="edgeStyle=none;rounded=0;orthogonalLoop=1;jettySize=auto;html=1;entryX=0;entryY=0.75;entryDx=0;entryDy=0;endArrow=open;endFill=0;" parent="LG1R4LiIlNsXxnt8L3_L-1" source="BTB03IHmnFTw1apKpfme-12" target="BTB03IHmnFTw1apKpfme-14" edge="1">
          <mxGeometry relative="1" as="geometry" />
        </mxCell>
        <mxCell id="BTB03IHmnFTw1apKpfme-12" value="&lt;p style=&quot;line-height: 100%&quot;&gt;&amp;lt;&amp;lt;actor&amp;gt;&amp;gt;&lt;br&gt;&lt;br&gt;&lt;b&gt;Deployment&lt;br&gt;Specialist&lt;/b&gt;&lt;/p&gt;" style="text;html=1;align=center;verticalAlign=middle;dashed=0;strokeColor=#000000;strokeWidth=2;" parent="LG1R4LiIlNsXxnt8L3_L-1" vertex="1">
          <mxGeometry x="240" y="538" width="80" height="77" as="geometry" />
        </mxCell>
        <mxCell id="BTB03IHmnFTw1apKpfme-13" value="" style="fontStyle=1;align=center;verticalAlign=top;childLayout=stackLayout;horizontal=1;horizontalStack=0;resizeParent=1;resizeParentMax=0;resizeLast=0;marginBottom=0;strokeColor=#82b366;strokeWidth=2;fillColor=none;" parent="LG1R4LiIlNsXxnt8L3_L-1" vertex="1">
          <mxGeometry x="360" y="530" width="120" height="93" as="geometry" />
        </mxCell>
        <mxCell id="BTB03IHmnFTw1apKpfme-14" value="Restore DB &amp;amp; &lt;br&gt;reprocess &#39;new&#39; &lt;br&gt;queue" style="html=1;align=left;spacingLeft=4;verticalAlign=middle;strokeColor=none;fillColor=none;fontStyle=1" parent="BTB03IHmnFTw1apKpfme-13" vertex="1">
          <mxGeometry width="120" height="60" as="geometry" />
        </mxCell>
        <mxCell id="BTB03IHmnFTw1apKpfme-15" value="" style="shape=ellipse;" parent="BTB03IHmnFTw1apKpfme-14" vertex="1">
          <mxGeometry x="1" width="10" height="16" relative="1" as="geometry">
            <mxPoint x="-25" y="7" as="offset" />
          </mxGeometry>
        </mxCell>
        <mxCell id="BTB03IHmnFTw1apKpfme-16" value="" style="line;strokeWidth=1;fillColor=none;align=left;verticalAlign=middle;spacingTop=-1;spacingLeft=3;spacingRight=3;rotatable=0;labelPosition=right;points=[];portConstraint=eastwest;" parent="BTB03IHmnFTw1apKpfme-13" vertex="1">
          <mxGeometry y="60" width="120" height="8" as="geometry" />
        </mxCell>
        <mxCell id="BTB03IHmnFTw1apKpfme-17" value="." style="html=1;align=center;spacingLeft=4;verticalAlign=top;strokeColor=none;fillColor=none;" parent="BTB03IHmnFTw1apKpfme-13" vertex="1">
          <mxGeometry y="68" width="120" height="25" as="geometry" />
        </mxCell>
        <mxCell id="39oBVM_Vkao8gy4ON04F-0" value="Title" parent="LG1R4LiIlNsXxnt8L3_L-0" visible="0" />
        <mxCell id="AECcQKfykFGmC37lzjBa-16" value="&lt;font style=&quot;font-size: 12px&quot;&gt;&lt;span&gt;Diagram: Base&amp;nbsp;&lt;/span&gt;System&amp;nbsp;&lt;span&gt;Logical Module -&amp;nbsp;&lt;/span&gt;&lt;span&gt;Functionality -&amp;nbsp;&lt;/span&gt;System Commands&amp;nbsp;&lt;/font&gt;" style="text;strokeColor=none;fillColor=none;html=1;fontSize=10;fontStyle=2;verticalAlign=middle;align=left;shadow=0;glass=0;comic=0;opacity=30;fontColor=#808080;" parent="39oBVM_Vkao8gy4ON04F-0" vertex="1">
          <mxGeometry x="120" y="660" width="520" height="20" as="geometry" />
        </mxCell>
        <mxCell id="39oBVM_Vkao8gy4ON04F-1" value="Information" parent="LG1R4LiIlNsXxnt8L3_L-0" visible="0" />
        <UserObject label="" tooltip="ABOUT&#xa;&#xa;In systems that manipulate Agreements (whether that be Contract statements, asset or currency transactions, etc.) the operations must be handled via an Operation Track. &#xa;This is non-negotiable, as there is a large probability that at some point an error in logic will be introduced with a new feature, discovered later, and operations have be rewound to be replayed -- this time with the correct maths. Not planning to have this functionality is reputationally damaging -- sometimes leading to organisation failure (nobody likes receiving less money than they feel entitled to). &#xa;" id="AECcQKfykFGmC37lzjBa-17">
          <mxCell style="shape=image;html=1;verticalAlign=top;verticalLabelPosition=bottom;labelBackgroundColor=#ffffff;imageAspect=0;aspect=fixed;image=https://cdn1.iconfinder.com/data/icons/hawcons/32/699014-icon-28-information-128.png;shadow=0;dashed=0;fontFamily=Helvetica;fontSize=12;fontColor=#000000;align=center;strokeColor=#000000;fillColor=#505050;dashPattern=1 1;" parent="39oBVM_Vkao8gy4ON04F-1" vertex="1">
            <mxGeometry x="660" y="660" width="20" height="20" as="geometry" />
          </mxCell>
        </UserObject>
      </root>
    </mxGraphModel>
  </diagram>
</mxfile>
